<svg width="37" height="36" viewBox="0 0 37 36" fill="none" xmlns="http://www.w3.org/2000/svg">
<path d="M8.16666 10.5H28.8517C29.2708 10.5 29.6853 10.5879 30.0684 10.7579C30.4515 10.9279 30.7947 11.1763 31.0759 11.487C31.3572 11.7978 31.5702 12.164 31.7012 12.5622C31.8322 12.9603 31.8784 13.3815 31.8367 13.7985L30.9367 22.7985C30.8626 23.5388 30.5162 24.2251 29.9646 24.7243C29.413 25.2235 28.6956 25.5 27.9517 25.5H13.6267C12.9329 25.5003 12.2604 25.2601 11.7238 24.8203C11.1872 24.3805 10.8196 23.7683 10.6837 23.088L8.16666 10.5Z" stroke="white" stroke-width="3" stroke-linejoin="round"/>
<path d="M8.16666 10.5L6.95166 5.6355C6.8704 5.31113 6.68308 5.02321 6.41947 4.81748C6.15585 4.61175 5.83105 4.50001 5.49666 4.5H3.66666" stroke="white" stroke-width="3" stroke-linecap="round" stroke-linejoin="round"/>
<path d="M12.6667 31.5H15.6667" stroke="white" stroke-width="3" stroke-linecap="round" stroke-linejoin="round"/>
<path d="M24.6667 31.5H27.6667" stroke="white" stroke-width="3" stroke-linecap="round" stroke-linejoin="round"/>
</svg>
